<?xml version="1.0" standalone="no"?><!DOCTYPE svg PUBLIC "-//W3C//DTD SVG 1.1//EN" "http://www.w3.org/Graphics/SVG/1.1/DTD/svg11.dtd"><svg class="icon" height="512" viewBox="0 0 1024 1024" version="1.1" xmlns="http://www.w3.org/2000/svg"><path d="M513.75 389.12c71.028 0 126.835-57.874 126.835-127.665 0-69.79-55.807-129.367-126.834-129.367-71.028 0-126.835 57.875-126.835 127.665s57.499 129.368 126.835 129.368z m93.012 171.923l40.587 282.566-99.776 105.536c-13.529 13.618-33.822 13.618-47.351 1.702L386.916 843.61l40.587-279.162c-20.293-8.51-37.204-20.426-54.116-34.044-104.85 51.066-172.494 156.603-172.494 274.055 0 18.724-15.22 34.044-33.823 34.044-18.602 0-33.822-15.32-33.822-34.044 0-153.198 94.703-289.374 235.066-345.547l21.985-8.511 15.22 18.724c25.367 30.64 64.262 47.662 106.54 47.662 42.279 0 79.483-17.022 106.541-47.662l15.22-18.724 21.985 8.51c140.363 57.876 235.066 192.35 235.066 345.548 0 18.724-15.22 34.044-33.822 34.044-18.603 0-33.823-15.32-33.823-34.044 0-117.452-67.645-222.989-172.494-274.055-13.53 11.916-28.75 22.129-43.97 30.64z m-113.305 20.426l-33.822 236.607 62.571 59.577 54.116-57.875L542.5 581.469c-10.147 1.703-18.603 1.703-28.75 1.703-8.455 0-15.22 0-20.293-1.703z m20.294-124.26c-108.232 0-194.48-88.515-194.48-195.754C319.271 154.217 407.21 64 513.751 64c106.54 0 194.479 88.515 194.479 195.753 0 107.239-86.248 197.456-194.48 197.456z" /></svg>